<svg width="272" height="106" viewBox="0 0 272 106" fill="none" xmlns="http://www.w3.org/2000/svg">
<path d="M30.5005 83.1157V50.6157C24.8338 52.4491 13.3005 55.0157 12.5005 50.6157C11.5005 45.1157 16.0005 26.6157 18.0005 29.6157C20.0005 32.6157 18 42.1157 21 42.6157C23.4 43.0157 29 42.1157 31.5 41.6157C29.3333 26.4491 27.9 -2.58426 39.5 2.61574C51.1 7.81574 52 35.4491 51 48.6157C55 43.9491 62.1 33.6157 58.5 29.6157C54 24.6157 62.5 20.6157 63.5 24.1157C64.5 27.6157 68.5 46.6157 63.5 48.6157C59.5 50.2157 55.5 52.2824 54 53.1157V73.1157L30.5005 85.6157" stroke="black" stroke-width="4" stroke-linecap="round" stroke-linejoin="round"/>
<path d="M99 58.9537C65.4 56.5537 19 89.2871 0 105.954H270.5C271.833 76.787 272.2 16.1537 263 6.95366C251.5 -4.54634 141 61.9537 99 58.9537Z" fill="black"/>
<circle cx="123" cy="22.9537" r="13" fill="black"/>
</svg>
